<svg xmlns="http://www.w3.org/2000/svg" width="360" height="780" viewBox="0 0 360 780" role="img" aria-label="AI Quota Lego Brick dashboard screenshot preview">
  <defs><linearGradient id="blue" x1="0" x2="1"><stop stop-color="#33bcef"/><stop offset="1" stop-color="#5ed1f1"/></linearGradient><linearGradient id="mint" x1="0" x2="1"><stop stop-color="#10d8a2"/><stop offset="1" stop-color="#24e6bc"/></linearGradient></defs>
  <rect width="360" height="780" fill="#fff2ad" rx="30"/>
  <rect width="360" height="106" fill="#39bdec"/><text x="24" y="74" fill="#182030" font-family="Arial, sans-serif" font-size="28">AI Quota</text><text x="315" y="74" fill="#182030" font-family="Arial" font-size="26">⚙</text>
  <g font-family="Arial, sans-serif" fill="#192131" stroke="#1c2430" stroke-linejoin="round">
    <rect x="14" y="122" width="332" height="66" rx="6" fill="url(#blue)" stroke-width="4"/><text x="28" y="160" font-size="25" font-weight="800" stroke="none">Lego Brick</text><text x="28" y="178" font-size="13" stroke="none" opacity=".8">5 providers stacked</text><circle cx="253" cy="154" r="10" fill="#ffd066" stroke-width="2"/><circle cx="278" cy="154" r="10" fill="#72def5" stroke-width="2"/><circle cx="303" cy="154" r="10" fill="#ef4d78" stroke-width="2"/><circle cx="328" cy="154" r="10" fill="#39dc99" stroke-width="2"/>

    <rect x="14" y="206" width="332" height="270" rx="6" fill="#ffd36b" stroke-width="4"/><circle cx="44" cy="238" r="18" fill="#d8d36c" stroke="none"/><text x="34" y="244" fill="#3db26d" font-size="12" stroke="none">FL</text><text x="72" y="237" font-size="21" font-weight="800" stroke="none">Codex (feelol)</text><text x="72" y="260" font-size="13" stroke="none">OK</text><rect x="300" y="226" width="30" height="30" rx="4" fill="#20dfad" stroke-width="3"/><text x="306" y="247" font-size="14" font-weight="800" stroke="none">OK</text>
    <g fill="none" stroke-width="2"><circle cx="36" cy="287" r="9"/><circle cx="60" cy="287" r="9"/><circle cx="84" cy="287" r="9"/><circle cx="108" cy="287" r="9"/><circle cx="132" cy="287" r="9"/><circle cx="156" cy="287" r="9"/></g>
    <g stroke-width="2" font-size="13" font-weight="800">
      <text x="28" y="325" stroke="none">Daily</text><text x="282" y="325" stroke="none">96% left</text><g transform="translate(28 338)"><rect width="25" height="15" rx="2" fill="url(#mint)"/><rect x="32" width="25" height="15" rx="2" fill="url(#mint)"/><rect x="64" width="25" height="15" rx="2" fill="url(#mint)"/><rect x="96" width="25" height="15" rx="2" fill="url(#mint)"/><rect x="128" width="25" height="15" rx="2" fill="url(#mint)"/><rect x="160" width="25" height="15" rx="2" fill="url(#mint)"/><rect x="192" width="25" height="15" rx="2" fill="url(#mint)"/><rect x="224" width="25" height="15" rx="2" fill="url(#mint)"/><rect x="256" width="25" height="15" rx="2" fill="url(#mint)"/><rect x="288" width="25" height="15" rx="2" fill="url(#mint)"/></g>
      <text x="28" y="381" stroke="none">Weekly</text><text x="282" y="381" stroke="none">87% left</text><g transform="translate(28 394)"><rect width="25" height="15" rx="2" fill="url(#mint)"/><rect x="32" width="25" height="15" rx="2" fill="url(#mint)"/><rect x="64" width="25" height="15" rx="2" fill="url(#mint)"/><rect x="96" width="25" height="15" rx="2" fill="url(#mint)"/><rect x="128" width="25" height="15" rx="2" fill="url(#mint)"/><rect x="160" width="25" height="15" rx="2" fill="url(#mint)"/><rect x="192" width="25" height="15" rx="2" fill="url(#mint)"/><rect x="224" width="25" height="15" rx="2" fill="url(#mint)"/><rect x="256" width="25" height="15" rx="2" fill="#fff2ad"/><rect x="288" width="25" height="15" rx="2" fill="#fff2ad"/></g>
      <text x="28" y="437" stroke="none">Monthly</text><text x="282" y="437" stroke="none">95% left</text><g transform="translate(28 450)"><rect width="25" height="15" rx="2" fill="url(#mint)"/><rect x="32" width="25" height="15" rx="2" fill="url(#mint)"/><rect x="64" width="25" height="15" rx="2" fill="url(#mint)"/><rect x="96" width="25" height="15" rx="2" fill="url(#mint)"/><rect x="128" width="25" height="15" rx="2" fill="url(#mint)"/><rect x="160" width="25" height="15" rx="2" fill="url(#mint)"/><rect x="192" width="25" height="15" rx="2" fill="url(#mint)"/><rect x="224" width="25" height="15" rx="2" fill="url(#mint)"/><rect x="256" width="25" height="15" rx="2" fill="url(#mint)"/><rect x="288" width="25" height="15" rx="2" fill="#fff2ad"/></g>
    </g>

    <rect x="14" y="495" width="332" height="206" rx="6" fill="#4bc6e9" stroke-width="4"/><circle cx="44" cy="530" r="18" fill="#7ec5cb" stroke="none"/><text x="39" y="536" fill="#ff6b1a" font-size="13" stroke="none">M</text><text x="72" y="532" font-size="20" font-weight="800" stroke="none">MiMo Token Plan</text><text x="72" y="555" font-size="13" stroke="none">OK</text><rect x="300" y="517" width="30" height="30" rx="4" fill="#20dfad" stroke-width="3"/><text x="306" y="538" font-size="14" font-weight="800" stroke="none">OK</text>
    <g fill="none" stroke-width="2"><circle cx="36" cy="594" r="9"/><circle cx="60" cy="594" r="9"/><circle cx="84" cy="594" r="9"/><circle cx="108" cy="594" r="9"/><circle cx="132" cy="594" r="9"/><circle cx="156" cy="594" r="9"/></g>
    <text x="28" y="631" font-size="13" font-weight="800" stroke="none">Tokens</text><text x="282" y="631" font-size="13" font-weight="800" stroke="none">99% left</text><g transform="translate(28 644)" stroke-width="2"><rect width="25" height="15" rx="2" fill="url(#mint)"/><rect x="32" width="25" height="15" rx="2" fill="url(#mint)"/><rect x="64" width="25" height="15" rx="2" fill="url(#mint)"/><rect x="96" width="25" height="15" rx="2" fill="url(#mint)"/><rect x="128" width="25" height="15" rx="2" fill="url(#mint)"/><rect x="160" width="25" height="15" rx="2" fill="url(#mint)"/><rect x="192" width="25" height="15" rx="2" fill="url(#mint)"/><rect x="224" width="25" height="15" rx="2" fill="url(#mint)"/><rect x="256" width="25" height="15" rx="2" fill="url(#mint)"/><rect x="288" width="25" height="15" rx="2" fill="url(#mint)"/></g>
    <text x="28" y="687" font-size="13" font-weight="800" stroke="none">Plan Expires</text><text x="282" y="687" font-size="13" font-weight="800" stroke="none">50% left</text>
  </g>
</svg>