<svg xmlns="http://www.w3.org/2000/svg" width="360" height="780" viewBox="0 0 360 780" role="img" aria-label="AI Quota monitor panel dashboard screenshot preview">
  <rect width="360" height="780" rx="30" fill="#f5f6f8"/>
  <rect y="0" width="360" height="106" fill="#ffffff"/>
  <text x="24" y="74" fill="#111827" font-family="Inter, Arial, sans-serif" font-size="28">AI Quota</text><text x="315" y="74" fill="#111827" font-family="Arial" font-size="26">⚙</text>
  <g font-family="Inter, Arial, sans-serif">
    <rect x="14" y="122" width="332" height="64" rx="8" fill="#ffffff" stroke="#dfe3e8"/>
    <text x="28" y="154" fill="#111827" font-size="20" font-weight="700">Usage Monitor</text><text x="28" y="174" fill="#6b7280" font-size="13">5 providers tracked</text><rect x="272" y="141" width="58" height="25" rx="7" fill="#eaf8ef" stroke="#a6d9bc"/><text x="281" y="159" fill="#41a766" font-size="12" font-weight="700">SYNCED</text>
    <g transform="translate(18 206)">
      <rect width="150" height="31" rx="8" fill="#ffffff" stroke="#9ca3af"/><circle cx="22" cy="15" r="11" fill="#ffe4d6"/><text x="17" y="20" fill="#ff6b1a" font-size="12">M</text><text x="46" y="21" fill="#9ca3af" font-size="14">MiMo Token Plan</text>
      <rect x="162" width="88" height="31" rx="8" fill="#3f3e58"/><circle cx="183" cy="15" r="11" fill="#203a38"/><text x="177" y="20" fill="#22d0a4" font-size="10">AI</text><text x="207" y="21" fill="#ffffff" font-size="14">Codex</text>
      <rect x="258" width="94" height="31" rx="8" fill="#ffffff" stroke="#9ca3af" opacity=".7"/><circle cx="279" cy="15" r="11" fill="#dff7ef"/><text x="273" y="20" fill="#22b88c" font-size="10">AI</text><text x="304" y="21" fill="#9ca3af" font-size="14">ChatGPT</text>
    </g>
    <rect x="14" y="256" width="332" height="100" rx="8" fill="#ffffff" stroke="#e0e4e8"/>
    <circle cx="44" cy="306" r="22" fill="#ddf8f1"/><text x="35" y="313" fill="#23c6a2" font-size="12">AI</text><text x="72" y="298" fill="#111827" font-size="20" font-weight="700">Codex</text><text x="72" y="322" fill="#6b7280" font-size="14">Plus</text><text x="260" y="304" fill="#111827" font-size="41" font-weight="800">51%</text><rect x="266" y="314" width="68" height="26" rx="8" fill="#e7f8ef" stroke="#a7d8bb"/><text x="279" y="333" fill="#3ca467" font-size="13" font-weight="700">HEALTHY</text>
    <rect x="14" y="368" width="152" height="88" rx="8" fill="#ffffff" stroke="#e0e4e8"/><text x="28" y="394" fill="#606b7b" font-size="13">5h Usage</text><text x="28" y="429" fill="#111827" font-size="28" font-weight="800">99%</text><text x="28" y="447" fill="#6b7280" font-size="12">Resets 05:54</text>
    <rect x="194" y="368" width="152" height="88" rx="8" fill="#ffffff" stroke="#e0e4e8"/><text x="208" y="394" fill="#606b7b" font-size="13">7d Usage</text><text x="208" y="429" fill="#111827" font-size="28" font-weight="800">51%</text><text x="208" y="447" fill="#6b7280" font-size="12">2026年07月12日</text>
    <rect x="14" y="468" width="152" height="88" rx="8" fill="#ffffff" stroke="#e0e4e8"/><text x="28" y="494" fill="#606b7b" font-size="13">Status</text><text x="28" y="529" fill="#111827" font-size="27" font-weight="800">HEALTHY</text><text x="28" y="548" fill="#6b7280" font-size="12">Updated 00:54</text>
    <rect x="14" y="573" width="332" height="176" rx="8" fill="#ffffff" stroke="#e0e4e8"/><text x="28" y="606" fill="#111827" font-size="18" font-weight="700">Provider Health</text>
    <g font-size="16"><circle cx="42" cy="634" r="12" fill="#ddf8e9"/><text x="35" y="640" fill="#2dbf71" font-size="10">FL</text><text x="62" y="641" fill="#111827">Codex (feelol)</text><text x="310" y="641" fill="#3ca467" font-weight="700">47%</text><circle cx="42" cy="670" r="12" fill="#ffe8d8"/><text x="38" y="676" fill="#ff6b1a" font-size="10">M</text><text x="62" y="677" fill="#111827">MiMo Token Plan</text><text x="310" y="677" fill="#3ca467" font-weight="700">50%</text><circle cx="42" cy="706" r="12" fill="#ddf8f1"/><text x="36" y="712" fill="#22c6a0" font-size="10">AI</text><text x="62" y="713" fill="#111827">Codex</text><text x="310" y="713" fill="#3ca467" font-weight="700">51%</text></g>
  </g>
</svg>